<?xml version="1.0" encoding="utf-8"?>
<!-- Generator: Adobe Illustrator 23.0.1, SVG Export Plug-In . SVG Version: 6.00 Build 0)  -->
<svg version="1.1" id="Layer_1" xmlns="http://www.w3.org/2000/svg" xmlns:xlink="http://www.w3.org/1999/xlink" x="0px" y="0px"
	 viewBox="0 0 803 803" style="enable-background:new 0 0 803 803;" xml:space="preserve">
<style type="text/css">
	.st0{fill:url(#SVGID_1_);}
	.st1{fill:url(#SVGID_2_);}
	.st2{fill:url(#SVGID_3_);}
	.st3{fill:url(#SVGID_4_);}
	.st4{fill:url(#SVGID_5_);}
</style>
<linearGradient id="SVGID_1_" gradientUnits="userSpaceOnUse" x1="400.1915" y1="131.1358" x2="400.1915" y2="604.3535" gradientTransform="matrix(1 0 0 -1 0 805.0213)">
	<stop  offset="0" style="stop-color:#9F2FFF"/>
	<stop  offset="1" style="stop-color:#0BB1D3"/>
</linearGradient>
<path class="st0" d="M590.5,503.7h-14.1c0-19.4-15.8-35.2-35.2-35.2v-14.1C568.4,454.4,590.5,476.5,590.5,503.7z M486,285.1
	l-0.6-14.1c-0.4,0-0.8,0.1-0.7,0.1c-6.3,0-12.3-2.9-16.4-8l-3.7-4.6l-5.2,2.8c-6.5,3.5-13.5,3.5-20,0l-6.8,12.4
	c9,4.9,19.2,5.7,28.5,2.3c6.4,5.9,14.8,9.1,23.5,9.1C485.3,285.2,485.8,285.2,486,285.1z M513,341.6v-7c0-4.8,1.6-9.3,4.8-13.2
	l-11-8.9c-3.8,4.7-6.2,10-7.3,15.6c-13.1,2.5-23.9,12.3-27.5,25.5l13.6,3.7c2.5-9.2,10.8-15.7,20.3-15.7H513z M393.1,285.2
	c-0.5,0-1,0-1.3,0.1l0.6,14.1c0.4,0,0.8-0.1,0.7-0.1c9.6,0,18,6.6,20.4,15.9l13.7-3.5C423.2,296.2,409.2,285.2,393.1,285.2z
	 M618.7,503.7c0,27.5-14.8,53.2-38.7,67.1c-2.3,1.3-3.6,3.6-3.6,6.1v25.5c0,9.9-4.2,19.4-11.5,26.1c-6.5,5.9-15,9.2-23.8,9.2
	c-1.1,0-2.2-0.1-3.4-0.2c-17.8-1.7-31.8-17.6-31.8-36.3v-24.3c0-2.5-1.4-4.8-3.6-6.1c-23.8-13.8-38.7-39.5-38.7-67.1h0v-13.1
	c-9.2,23.6-14.1,49.1-14.1,74.4v44.4h-14.1v-44.4c0-32,7.2-64.1,20.8-93l7.4-15.7l0,0v-23.9c0-22.8-8.1-44.4-23-61.4
	c-5.7,3.7-12.3,5.7-19.3,5.7c-14.2,0-26.8-8.6-32.3-21.4c-12.5-1.5-23.3-9.6-28.2-21.1c-17.5-2-31.1-17-31.1-35
	c0-11.5,5.5-22,14.8-28.6c-1.6-8-0.4-15.8,3.8-23.5c3.2-5.9,8-10.7,13.9-13.9c7.7-4.2,15.6-5.5,23.6-3.8c2.2-3.1,4.9-5.8,7.9-8
	c-13.9-4.5-28.5-6.8-43.4-6.8c-25.8,0-50.6,7.8-71.8,22.4c-34,23.6-54.4,62.3-54.4,103.8v17.7c0,4.5-1.8,8.9-5,12L196.7,393
	c-0.5,0.5-0.9,1.3-0.9,2.1c0,1.6,1.3,2.9,2.9,2.9c9.9,0,18.3,6.7,20.6,16.3L235,481c5.1,21.7,24.2,36.9,46.5,36.9
	c7.4,0,14.8-1.7,21.4-5l101.2-50.6l6.3,12.6l-73.6,36.8v69.6h-14.1v-62.6l-13.5,6.7c-8.5,4.3-18.1,6.5-27.7,6.5
	c-28.9,0-53.6-19.6-60.2-47.7l-15.7-66.7c-0.8-3.2-3.6-5.4-6.9-5.4c-9.4,0-17-7.6-17-17c0-4.5,1.8-8.9,5-12l22.3-22.3
	c0.5-0.5,0.9-1.3,0.9-2.1V341c0-46,22.6-89.2,60.4-115.3c23.6-16.3,51.2-24.9,79.9-24.9c22.7,0,44.5,4.8,64.9,14.2
	c3.7,0.1,7.4,0.7,11,2c6.4-5.9,14.8-9.1,23.5-9.1c8.8,0,17.1,3.3,23.5,9.1c3.8-1.4,7.7-2.1,11.7-2.1c14.2,0,26.8,8.6,32.3,21.4
	c16.1,1.9,29,14.7,30.9,30.9c12.8,5.5,21.4,18.1,21.4,32.3c0,6.2-1.7,12.2-4.8,17.6c3.2,5.4,4.8,11.4,4.8,17.6
	c0,17.2-12.4,31.6-28.8,34.6c-3,16.4-17.4,28.8-34.6,28.8v36.7c8.3-4.3,17.2-7,26.4-8c22.1-2.4,44.1,4.6,60.5,19.3
	C609.3,460.7,618.7,481.7,618.7,503.7z M520,581.3v14.1h42.3v-14.1H520z M541.2,517.8c3.9,0,7-3.2,7-7s-3.2-7-7-7c-3.9,0-7,3.2-7,7
	S537.3,517.8,541.2,517.8z M555.4,618.1c2.6-2.4,4.4-5.4,5.6-8.6h-39.4c2.9,7.6,9.5,13.2,17.5,14C545.1,624,550.9,622.1,555.4,618.1
	z M604.6,503.7c0-18-7.7-35.2-21.1-47.3c-13.6-12.2-31.2-17.8-49.6-15.8c-11,1.2-21.7,5.5-30.8,12.4l-11.3,8.5v-80.8l8.8,2.3
	c2,0.5,3.7,0.8,5.3,0.8c11.7,0,21.1-9.5,21.1-21.1v-7h7c11.7,0,21.1-9.5,21.1-21.1c0-4.8-1.6-9.3-4.8-13.2l-3.6-4.4l3.6-4.4
	c3.1-3.9,4.8-8.4,4.8-13.2c0-9.6-6.6-18-15.9-20.4l-5.5-1.4l0.3-6.9c0-11.2-9.5-20.7-21.2-20.7c0.1,0-0.3,0.1-0.7,0.1l-5.7,0.2
	l-1.4-5.5c-3.2-12.7-18-20-30.4-13.3l-5.2,2.8l-3.7-4.6c-4.1-5.1-10-8-16.4-8c-6.3,0-12.3,2.9-16.4,8l-3.7,4.6l-5.2-2.8
	c-11-6-23.9-1.2-29,9.3l-2.8,5.8l-6-2.3c-6-2.3-11.8-1.8-17.6,1.3c-3.5,1.9-6.4,4.8-8.3,8.3c-3.2,5.8-3.6,11.5-1.3,17.5l2.3,6
	l-5.8,2.8c-7.4,3.6-12,10.9-12,19c0,11.7,9.5,21.1,21.1,21.1c-0.1,0,0.3-0.1,0.7-0.1l5.7-0.2l1.4,5.5c2.4,9.4,10.8,15.9,20.4,15.9
	c-0.1,0,0.3-0.1,0.7-0.1l5.7-0.2l1.4,5.5c2.4,9.4,10.8,15.9,20.4,15.9c5.7,0,11-2.2,14.9-6.2l5-5l5,5c20.3,20.3,31.5,47.3,31.5,76
	l0,71.2c0,22.5,12.1,43.6,31.6,54.9c3.5,2.1,6.3,5.1,8.1,8.6h16.6v-36.5c-8.2-2.9-14.1-10.7-14.1-19.8c0-11.7,9.5-21.1,21.1-21.1
	c11.7,0,21.1,9.5,21.1,21.1c0,9.2-5.9,16.9-14.1,19.8v36.5h16.6c1.8-3.5,4.6-6.5,8.1-8.6C592.5,547.3,604.6,526.3,604.6,503.7z
	 M336.8,595.4h-14.1v14.1h14.1V595.4z M322.7,673.9h14.1v-50.3h-14.1V673.9z M449.5,623.6h-14.1v50.3h14.1V623.6z M365,517.8h-14.1
	v14.1H365V517.8z M350.9,560.1H365V546h-14.1V560.1z M350.9,673.9H365v-99.7h-14.1V673.9z M421.3,517.8h-14.1v14.1h14.1V517.8z
	 M407.2,560.1h14.1V546h-14.1V560.1z M407.2,673.9h14.1v-99.7h-14.1V673.9z M379,503.7v170.2h14.1V503.7H379z"/>
<linearGradient id="SVGID_2_" gradientUnits="userSpaceOnUse" x1="75.0639" y1="562.2759" x2="400.0115" y2="562.2759">
	<stop  offset="0" style="stop-color:#B07EB7"/>
	<stop  offset="0.5" style="stop-color:#8C3D96"/>
	<stop  offset="1" style="stop-color:#762A90"/>
</linearGradient>
<path class="st1" d="M400,672.8v55.1c-86.6-0.4-168-34.3-229.3-95.6C109,570.7,75.1,488.7,75.1,401.5c0-1.6,0-3.3,0-4.9h55.1
	c0,1.6,0,3.3,0,4.9C130.2,550.6,251.1,672,400,672.8z"/>
<linearGradient id="SVGID_3_" gradientUnits="userSpaceOnUse" x1="75.0969" y1="235.8401" x2="400.0115" y2="235.8401">
	<stop  offset="0" style="stop-color:#F37E5F"/>
	<stop  offset="0.5" style="stop-color:#EC1C24"/>
	<stop  offset="1" style="stop-color:#CF232A"/>
</linearGradient>
<path class="st2" d="M400,75.1v55.1C252.7,131,132.8,249.7,130.2,396.6H75.1c1.3-85.4,35.1-165.4,95.6-225.9
	C232,109.4,313.4,75.4,400,75.1z"/>
<linearGradient id="SVGID_4_" gradientUnits="userSpaceOnUse" x1="400.0115" y1="235.8346" x2="727.9243" y2="235.8346">
	<stop  offset="0" style="stop-color:#9F2FFF"/>
	<stop  offset="1" style="stop-color:#0BB1D3"/>
</linearGradient>
<path class="st3" d="M727.9,396.6h-55.1c-2.6-147.4-123.3-266.4-271.3-266.4c-0.5,0-1,0-1.5,0V75.1c0.5,0,1,0,1.5,0
	c87.2,0,169.2,34,230.8,95.6C692.8,231.2,726.7,311.2,727.9,396.6z"/>
<linearGradient id="SVGID_5_" gradientUnits="userSpaceOnUse" x1="400.0115" y1="562.2814" x2="727.9575" y2="562.2814">
	<stop  offset="5.617999e-03" style="stop-color:#8AD0C3"/>
	<stop  offset="0.5" style="stop-color:#00B6A9"/>
	<stop  offset="1" style="stop-color:#00A185"/>
</linearGradient>
<path class="st4" d="M728,401.5c0,87.2-34,169.2-95.6,230.8C570.7,694,488.7,728,401.5,728c-0.5,0-1,0-1.5,0v-55.1c0.5,0,1,0,1.5,0
	c14.2,0,28.2-1.1,41.8-3.2h0.5v-0.1c129.6-20.4,229-132.8,229-268c0-1.6,0-3.3,0-4.9h55.1C727.9,398.2,728,399.9,728,401.5z"/>
</svg>
