<svg height="512pt" viewBox="0 -15 512 512" width="512pt" xmlns="http://www.w3.org/2000/svg"><path d="m404.128906 189.101562-28.128906-56.996093-28.140625 57.023437-31.859375 4.628906-31.859375-4.628906-28.140625-57.023437-28.140625 57.023437-31.859375 4.628906-31.859375-4.628906-28.140625-57.023437-28.140625 57.023437-62.929687 9.144532 45.535156 44.382812-10.75 62.675781 56.285156-29.589843 56.285156 29.589843-10.75-62.675781 14.464844-14.097656 14.464844 14.097656-10.75 62.675781 56.285156-29.589843 56.285156 29.589843-10.75-62.675781 14.464844-14.097656 14.464844 14.097656-10.75 62.675781 56.285156-29.589843 56.285156 29.589843-10.722656-62.515625 47.25-44.542968zm-251.6875 61.390626-16.441406-8.644532-16.441406 8.644532 3.140625-18.308594-13.300781-12.964844 18.382812-2.667969 8.21875-16.65625 8.222656 16.65625 18.378906 2.667969-13.300781 12.964844zm120 0-16.441406-8.644532-16.441406 8.644532 3.140625-18.308594-13.300781-12.964844 18.382812-2.667969 8.21875-16.65625 8.222656 16.65625 18.378906 2.667969-13.300781 12.964844zm120 0-16.441406-8.644532-16.441406 8.644532 3.140625-18.308594-13.300781-12.964844 18.382812-2.667969 8.21875-16.65625 8.234375 16.683594 18.625 2.640625-13.582031 12.808594zm0 0"/><path d="m436.089844 65.722656c-48.398438-42.382812-112.355469-65.722656-180.089844-65.722656-145.9375 0-256 106.1875-256 226 0 69.363281 36.34375 130.617188 90.914062 171.527344-.96875 21.867187-9.941406 42.289062-25.519531 57.867187l-25.609375 25.605469h66.214844c34.453125 0 66.691406-12.6875 91.695312-35.90625 19.023438 3.921875 38.597657 5.90625 58.304688 5.90625 141.160156 0 256-100.933594 256-225 0-60.488281-26.960938-117.40625-75.910156-160.277344zm-180.089844 355.277344c-37.316406 0-62.671875-7.917969-67.957031-8.902344-3.027344 2.222656-29.136719 38.875-81.980469 38.902344 9.75-17.34375 14.9375-36.984375 14.9375-57.425781v-11.433594c-2.136719-2.289063-91-53.230469-91-156.140625 0-108.074219 101.382812-196 226-196s226 87.925781 226 196c0 107.523438-101.382812 195-226 195zm0 0"/></svg>