<?xml version="1.0" encoding="iso-8859-1"?>
<!-- Generator: Adobe Illustrator 19.0.0, SVG Export Plug-In . SVG Version: 6.00 Build 0)  -->
<svg version="1.1" id="Layer_1" xmlns="http://www.w3.org/2000/svg" xmlns:xlink="http://www.w3.org/1999/xlink" x="0px" y="0px"
	 viewBox="0 0 512 512" style="enable-background:new 0 0 512 512;fill: #766dff;" xml:space="preserve">
<g>
	<g>
		<path d="M189.049,155.738c19.505-8.11,40.328-12.523,61.892-13.121l0.244-0.011c1.563-0.091,3.07-0.091,4.815-0.091
			c1.745,0,3.251,0,4.816,0.092l0.244,0.011c21.564,0.596,42.387,5.011,61.933,13.137c32.093,13.13,59.445,35.257,79.095,63.993
			c20.108,29.404,30.737,63.842,30.737,99.593h15.835c0-38.954-11.585-76.484-33.501-108.532
			c-19.174-28.036-45.096-50.276-75.393-64.884l79.409-78.816L376.47,0H135.53L92.825,67.108l79.42,78.814
			c-30.319,14.619-56.234,36.856-75.403,64.886C74.925,242.856,63.34,280.386,63.34,319.34C63.34,425.573,149.767,512,256,512
			c30.799,0,60.238-7.062,87.497-20.992c25.992-13.282,49.024-32.669,66.607-56.067l-12.659-9.514
			c-16.146,21.486-37.293,39.287-61.154,51.48c-25.008,12.778-52.022,19.258-80.292,19.258
			c-97.502,0-176.825-79.324-176.825-176.825c0-35.751,10.629-70.189,30.737-99.593
			C129.563,191.012,156.914,168.884,189.049,155.738z M257.988,126.691c-0.669-0.005-1.339-0.011-1.988-0.011
			s-1.32,0.005-1.988,0.011l-52.794-52.794h109.564L257.988,126.691z M324.094,139.154c-14.471-5.539-29.561-9.255-45.081-11.093
			l54.164-54.164h56.677L324.094,139.154z M367.776,15.835l26.872,42.227h-60.052l-23.033-42.227H367.776z M293.526,15.835
			l23.033,42.227H195.44l23.033-42.227H293.526z M144.222,15.835h56.212l-23.033,42.227H117.35L144.222,15.835z M122.147,73.897
			h56.677l54.164,54.164c-15.531,1.839-30.625,5.557-45.082,11.093L122.147,73.897z"/>
	</g>
</g>
<g>
	<g>
		<path d="M256,190.021c-71.307,0-129.32,58.012-129.32,129.32S184.693,448.66,256,448.66s129.32-58.012,129.32-129.32
			S327.307,190.021,256,190.021z M256,432.825c-62.576,0-113.485-50.91-113.485-113.485S193.424,205.856,256,205.856
			s113.485,50.91,113.485,113.485S318.576,432.825,256,432.825z"/>
	</g>
</g>
<g>
	<g>
		<rect x="229.608" y="31.67" width="52.784" height="15.835"/>
	</g>
</g>
<g>
	<g>
		<rect x="340.454" y="31.67" width="21.113" height="15.835"/>
	</g>
</g>
<g>
	<g>
		<rect x="150.433" y="31.67" width="21.113" height="15.835"/>
	</g>
</g>
<g>
	<g>
		<path d="M95.01,319.34h15.835c0-80.038,65.116-145.155,145.155-145.155v-15.835C167.23,158.351,95.01,230.57,95.01,319.34z"/>
	</g>
</g>
<g>
	<g>
		<path d="M401.155,319.34c0,80.038-65.116,145.155-145.155,145.155v15.835c88.77,0,160.99-72.219,160.99-160.99H401.155z"/>
	</g>
</g>
<g>
	<g>
		<rect x="95.01" y="329.897" width="15.835" height="21.113"/>
	</g>
</g>
<g>
	<g>
		<rect x="401.155" y="287.67" width="15.835" height="21.113"/>
	</g>
</g>
<g>
</g>
<g>
</g>
<g>
</g>
<g>
</g>
<g>
</g>
<g>
</g>
<g>
</g>
<g>
</g>
<g>
</g>
<g>
</g>
<g>
</g>
<g>
</g>
<g>
</g>
<g>
</g>
<g>
</g>
</svg>
